HIERARCHY
ROOT hip
{
	OFFSET 0.000000 0.000000 0.000000 
	CHANNELS 6 Xposition Yposition Zposition Xrotation Zrotation Yrotation
	JOINT abdomen
	{
		OFFSET 0.000000 3.402643 0.000000 
		CHANNELS 3 Xrotation Zrotation Yrotation
		JOINT chest
		{
			OFFSET 0.000000 8.438565 -0.680529 
			CHANNELS 3 Xrotation Zrotation Yrotation
			JOINT neck
			{
				OFFSET 0.000000 10.207942 -0.272212 
				CHANNELS 3 Xrotation Zrotation Yrotation
				JOINT head
				{
					OFFSET 0.000000 3.130431 0.000000 
					CHANNELS 3 Xrotation Zrotation Yrotation
					End Site
					{
						OFFSET 0.000000 3.130435 0.000000 
					}
				}
			}
			JOINT lCollar
			{
				OFFSET 3.470700 6.669187 -0.816635 
				CHANNELS 3 Yrotation Zrotation Xrotation
				JOINT lShldr
				{
					OFFSET 3.198488 0.000000 0.000000 
					CHANNELS 3 Zrotation Yrotation Xrotation
					JOINT lForeArm
					{
						OFFSET 10.139888 0.000000 0.000000 
						CHANNELS 3 Yrotation Zrotation Xrotation
						JOINT lHand
						{
							OFFSET 8.370511 0.000000 0.000000 
							CHANNELS 3 Zrotation Yrotation Xrotation
							End Site
							{
								OFFSET 4.083176 0.000000 0.000000 
							}
						}
					}
				}
			}
			JOINT rCollar
			{
				OFFSET -3.470700 6.669187 -0.816635 
				CHANNELS 3 Yrotation Zrotation Xrotation
				JOINT rShldr
				{
					OFFSET -3.198488 0.000000 0.000000 
					CHANNELS 3 Zrotation Yrotation Xrotation
					JOINT rForeArm
					{
						OFFSET -10.139888 0.000000 0.000000 
						CHANNELS 3 Yrotation Zrotation Xrotation
						JOINT rHand
						{
							OFFSET -8.370511 0.000000 0.000000 
							CHANNELS 3 Zrotation Yrotation Xrotation
							End Site
							{
								OFFSET -4.083176 0.000000 0.000000 
							}
						}
					}
				}
			}
		}
	}
	JOINT lThigh
	{
		OFFSET 5.308129 -1.633274 1.361059 
		CHANNELS 3 Xrotation Zrotation Yrotation
		JOINT lShin
		{
			OFFSET -2.041588 -20.007561 0.000000 
			CHANNELS 3 Xrotation Zrotation Yrotation
			JOINT lFoot
			{
				OFFSET 0.000000 -19.190928 -1.224953 
				CHANNELS 3 Xrotation Yrotation Zrotation
				End Site
				{
					OFFSET 0.000000 -2.449906 4.627600 
				}
			}
		}
	}
	JOINT rThigh
	{
		OFFSET -5.308129 -1.633274 1.361059 
		CHANNELS 3 Xrotation Zrotation Yrotation
		JOINT rShin
		{
			OFFSET 2.041588 -20.007561 0.000000 
			CHANNELS 3 Xrotation Zrotation Yrotation
			JOINT rFoot
			{
				OFFSET 0.000000 -19.190928 -1.224953 
				CHANNELS 3 Xrotation Yrotation Zrotation
				End Site
				{
					OFFSET 0.000000 -2.449906 4.627600 
				}
			}
		}
	}
}
MOTION
Frames: 8
Frame Time: 0.033333
0.058843 43.622070 0.335373 -2.468904 -8.556621 91.020668 0.000000 0.000000 0.000000 4.541060 -0.253109 6.278683 11.141627 -5.252144 -0.423916 -9.531296 2.617306 3.088449 12.286213 19.815832 19.984072 -97.523331 -1.382274 -6.124694 -40.552834 2.230333 18.747351 -4.555655 14.279424 49.250877 -3.859472 -23.505550 22.689760 82.314064 20.568317 75.345261 14.267833 -28.364649 -16.902962 24.290243 -2.391807 -10.022496 5.789944 12.480349 21.651667 52.209076 8.330817 -0.434594 0.664173 -9.847743 -21.300711 -10.148827 4.371463 2.760635 17.938347 2.730453 1.212466 -6.229166 -16.068541 26.522625 
0.006679 43.752720 0.515608 -2.646456 -8.526187 89.590416 0.000000 0.000000 0.000000 4.834108 0.408697 6.421351 11.164216 -5.411737 -0.439345 -9.300364 3.410845 -1.022809 12.711121 20.078585 19.764709 -97.616356 -1.455287 -6.065459 -42.762257 0.590459 20.378868 -6.125791 14.047219 48.864288 -3.140218 -24.300323 22.933031 82.582634 20.779362 75.434464 14.531836 -28.509193 -16.584900 24.255150 -2.187666 -10.014659 1.014617 12.986627 21.801662 59.217037 9.812650 -0.388399 2.059891 -6.524486 -20.730080 -8.137679 5.560519 3.059698 17.521194 2.263972 1.045482 -7.177529 -15.123034 25.160334 
-0.226024 43.875523 0.508854 -2.135783 -9.017272 87.658043 0.000000 0.000000 0.000000 4.824541 0.661710 6.471974 11.141005 -5.732225 -0.461771 -9.274517 4.043615 -5.589654 12.914865 20.204853 19.651009 -97.868927 -1.242789 -5.908010 -45.578472 -1.715812 17.949472 -5.063108 12.764751 49.399624 -2.298410 -25.290071 23.229450 82.663010 21.339872 75.351646 15.299163 -29.440170 -15.295864 24.818598 -1.858800 -9.880404 -4.335905 12.542667 21.407656 64.044815 9.954175 -0.543689 2.671876 -3.348477 -20.823160 -7.088457 5.712369 3.051358 17.489697 2.027650 1.021179 -7.825767 -13.510130 24.480471 
-0.569522 43.960564 0.282444 -0.039647 -9.853514 86.198097 0.000000 0.000000 0.000000 4.404575 -0.642628 6.200396 11.227638 -5.127462 -0.417139 -9.524389 3.833624 -11.361181 11.825957 21.024771 19.907495 -99.057579 -1.262023 -5.157082 -48.521065 -3.459902 13.029286 -2.557120 10.264129 50.366520 -2.715009 -25.816437 22.994030 82.187981 21.466747 75.049011 16.901220 -30.630291 -14.270288 24.959763 -1.698492 -9.858603 -10.242581 10.045466 20.075525 66.046867 9.290628 -0.747305 3.076781 -0.836493 -21.635580 -6.873505 3.535176 2.403791 17.986723 2.311109 1.108414 -8.253593 -11.771102 25.419384 
-0.917986 44.035439 0.066183 1.002241 -10.223078 84.391777 0.000000 0.000000 0.000000 4.502505 -0.895665 6.140267 11.226502 -4.479511 -0.373285 -9.666778 3.626396 -16.889076 10.690854 21.595285 20.258282 -99.790459 -1.689108 -4.691298 -51.049664 -5.190958 8.322511 -0.265057 7.991756 51.109951 -3.354453 -26.336075 22.661575 81.865372 21.642092 74.829216 18.666159 -31.545509 -14.273418 24.218603 -1.602545 -9.996024 -14.890787 9.040721 19.326395 65.399315 7.990882 -1.023612 3.046088 0.533172 -22.465855 -6.219055 2.655909 2.114478 18.314756 2.358811 1.154304 -8.807890 -10.405974 25.488218 
-1.273210 44.071548 -0.151342 1.969210 -10.911675 82.907692 0.000000 0.000000 0.000000 4.102535 -1.246798 6.072498 11.339425 -3.452839 -0.299199 -9.708840 3.282352 -21.896042 9.037626 22.616745 20.767443 -100.725548 -2.135860 -4.096364 -53.447750 -5.920510 5.539784 0.516475 6.776643 51.398350 -4.645766 -26.251066 22.075241 81.299606 21.373720 74.570763 20.692253 -32.225132 -14.944157 23.070309 -1.549116 -10.195231 -19.155718 8.267213 18.606901 62.371368 6.507082 -1.248128 2.691482 1.818587 -22.726013 -5.934716 1.864578 1.880426 18.417480 2.320548 1.164499 -9.450801 -9.533794 25.353065 
-1.637375 44.100353 -0.365550 2.629907 -11.384795 81.402992 0.000000 0.000000 0.000000 3.936712 -1.393191 6.046504 11.387411 -2.427628 -0.217675 -9.592828 2.801975 -26.037642 7.227535 23.775869 21.388142 -101.595093 -2.931387 -3.550283 -55.063843 -5.892114 4.526255 0.049213 5.848435 51.359203 -5.934822 -25.933420 21.513367 80.753494 20.950777 74.367409 22.809721 -32.907486 -15.796730 21.985720 -1.671323 -10.408683 -22.328806 8.023252 18.122826 57.220631 4.810848 -1.422358 2.032773 3.228224 -22.350203 -5.213071 1.464688 1.742918 18.152100 2.066478 1.103272 -10.146347 -8.795145 24.916899 
-1.966832 44.154034 -0.581055 2.964098 -10.942726 79.797295 0.000000 0.000000 0.000000 4.757345 -1.430603 6.013560 11.380829 -1.479695 -0.148172 -9.525660 2.208956 -28.916227 5.472708 24.732992 22.056240 -102.248077 -3.999834 -3.143260 -55.852425 -5.310892 4.374554 -0.768784 5.408477 51.208439 -6.724914 -25.494181 21.212488 80.286987 20.649460 74.167786 24.614519 -33.564495 -15.911427 21.422342 -1.679998 -10.501893 -23.425722 8.162570 18.035736 50.456974 3.005414 -1.532690 1.553378 4.303438 -22.005186 -3.199984 1.297814 1.635354 17.370136 1.568520 0.904270 -10.740675 -7.535748 24.637854 
